<svg width="115" height="103" viewBox="0 0 115 103" fill="none" xmlns="http://www.w3.org/2000/svg">
<path d="M86.7803 31.4662C84.6587 30.1596 81.9003 30.1596 79.5665 31.4662L63.0165 41.4829L51.7711 48.0157L35.2214 58.0327C33.0997 59.3392 30.3413 59.3392 28.0074 58.0327L14.8524 50.1935C12.7306 48.887 11.2454 46.4916 11.2454 43.8783V28.4175C11.2454 25.8044 12.5184 23.4091 14.8524 22.1025L27.7952 14.481C29.917 13.1744 32.6751 13.1744 35.0093 14.481L47.952 22.1025C50.0737 23.4091 51.5589 25.8044 51.5589 28.4175V38.4344L62.8043 31.6839V21.667C62.8043 19.0539 61.5315 16.6586 59.1974 15.352L35.2214 0.979915C33.0997 -0.326639 30.3413 -0.326639 28.0074 0.979915L3.60702 15.352C1.27306 16.6586 0 19.0539 0 21.667V50.629C0 53.2419 1.27306 55.6373 3.60702 56.9438L28.0074 71.3159C30.1292 72.6227 32.8876 72.6227 35.2214 71.3159L51.7711 61.5167L63.0165 54.7663L79.5665 44.9672C81.6882 43.6607 84.4465 43.6607 86.7803 44.9672L99.7231 52.5889C101.845 53.8954 103.33 56.2907 103.33 58.9037V74.3647C103.33 76.9776 102.057 79.373 99.7231 80.6795L86.7803 88.5191C84.6587 89.8256 81.9003 89.8256 79.5665 88.5191L66.6237 80.8974C64.5017 79.5909 63.0165 77.1955 63.0165 74.5822V64.5655L51.7711 71.3159V81.3329C51.7711 83.9459 53.0442 86.3413 55.3783 87.6478L79.7786 102.02C81.9003 103.327 84.6587 103.327 86.9925 102.02L111.393 87.6478C113.515 86.3413 115 83.9459 115 81.3329V52.3709C115 49.758 113.727 47.3626 111.393 46.0561L86.7803 31.4662Z" fill="#7950DD"/>
</svg>
